<?xml version="1.0" encoding="UTF-8" standalone="no"?>
<!DOCTYPE svg PUBLIC "-//W3C//DTD SVG 1.1//EN" "http://www.w3.org/Graphics/SVG/1.1/DTD/svg11.dtd">
<svg width="100%" height="100%" viewBox="0 0 195 195" version="1.1" xmlns="http://www.w3.org/2000/svg" xmlns:xlink="http://www.w3.org/1999/xlink" xml:space="preserve" xmlns:serif="http://www.serif.com/" style="fill-rule:evenodd;clip-rule:evenodd;stroke-linejoin:round;stroke-miterlimit:2;">
    <g transform="matrix(1.0087,0,0,0.967907,-0.306996,0.332179)">
        <rect id="Artboard1" x="0.304" y="-0.343" width="193.318" height="201.466" style="fill:none;"/>
        <g id="Artboard11" serif:id="Artboard1">
            <g transform="matrix(0.991376,0,0,1.03316,0.304348,-5.30238)">
                <path fill="currentColor" fill-opacity="0.9" d="M153.3,186.54L123.95,157.34L123.53,157.41L123.53,157.11L61.12,95.37L76.53,80.52L67.47,28.59L24.58,81.79C17.3,89.15 15.9,101.18 21.18,110L47.98,154.49C52.08,161.31 58.52,165.69 67.51,165.37C86.54,164.7 94.91,164.7 94.91,164.7L153.28,186.51L153.3,186.53L153.3,186.54Z" />
            </g>
            <g transform="matrix(0.991376,0,0,1.03316,0.304348,-5.30238)">
                <path fill="currentColor" fill-opacity="0.33" d="M167.8,104.72C172.03,96 173.54,88.37 169.37,80.72L163.44,69.8L160.36,64.2L159.16,62L159.06,62.14L142.91,34.14C138.851,27.063 131.258,22.716 123.1,22.8L108.94,23.2L66.69,23.31C58.72,23.367 51.344,27.626 47.31,34.5L21.64,85.48L67.58,28.33L127.85,94.6L117.05,105.53L123.5,157.37L123.59,157.27L123.59,157.41L123.49,157.41L123.63,157.54L128.65,162.44L152.95,186.18C153.98,187.16 155.63,185.98 154.95,184.76L139.93,155.19" />
            </g>
            <g transform="matrix(0.991376,0,0,1.03316,0.304348,-5.30238)">
                <path fill="currentColor" fill-opacity="0.7" d="M127.99,94.43L67.56,28.5L76.15,80.14L60.77,95.06L123.39,157.29L117.75,105.63L127.99,94.46L127.99,94.43Z" />
            </g>
        </g>
    </g>
</svg>
